<svg xmlns="http://www.w3.org/2000/svg" viewBox="0 0 200 200" fill="none">
  <rect width="200" height="200" rx="20" fill="#FFF7ED"/>
  <ellipse cx="100" cy="118" rx="62" ry="58" fill="#FDBA74"/>
  <ellipse cx="100" cy="122" rx="48" ry="44" fill="#FED7AA"/>
  <path d="M52 72 L68 44 L84 76 Z" fill="#FDBA74"/>
  <path d="M116 76 L132 44 L148 72 Z" fill="#FDBA74"/>
  <path d="M58 68 L68 50 L78 70 Z" fill="#FBCFE8"/>
  <path d="M122 70 L132 50 L142 68 Z" fill="#FBCFE8"/>
  <ellipse cx="78" cy="108" rx="10" ry="12" fill="#1E293B"/>
  <ellipse cx="122" cy="108" rx="10" ry="12" fill="#1E293B"/>
  <circle cx="81" cy="105" r="3.5" fill="#fff"/>
  <circle cx="125" cy="105" r="3.5" fill="#fff"/>
  <ellipse cx="100" cy="124" rx="6" ry="4" fill="#FB7185"/>
  <path d="M94 132 Q100 138 106 132" stroke="#BE123C" stroke-width="2" stroke-linecap="round" fill="none"/>
  <path d="M88 118 Q76 120 72 112" stroke="#9A3412" stroke-width="1.5" stroke-linecap="round" fill="none"/>
  <path d="M112 118 Q124 120 128 112" stroke="#9A3412" stroke-width="1.5" stroke-linecap="round" fill="none"/>
  <ellipse cx="64" cy="126" rx="8" ry="5" fill="#FDA4AF" opacity="0.6"/>
  <ellipse cx="136" cy="126" rx="8" ry="5" fill="#FDA4AF" opacity="0.6"/>
  <path d="M92 140 L88 148 M100 142 L100 150 M108 140 L112 148" stroke="#9A3412" stroke-width="1.5" stroke-linecap="round"/>
</svg>
